<svg width="16" height="16" viewBox="0 0 16 16" fill="none" xmlns="http://www.w3.org/2000/svg">
<path d="M7.33301 3.3335H8.66634M12.6663 8.00016C12.2219 11.5557 11.1108 13.3335 9.33301 13.3335H6.66634C4.88856 13.3335 3.77745 11.5557 3.33301 8.00016" stroke="#504F4E" stroke-width="1.2" stroke-linecap="round" stroke-linejoin="round"/>
<path d="M7.99991 12.0001V13.3334M6.66658 7.33341V7.34008M9.33325 7.33341V7.34008M7.33324 10.6667C7.33324 11.1112 7.55547 11.3334 7.99991 11.3334C8.66658 11.3334 8.66658 11.1114 8.66658 10.6667H7.33324ZM3.33324 2.66675L7.33324 3.31341L3.17458 7.77208C3.05785 7.90353 2.89474 7.98467 2.71949 7.99846C2.54423 8.01226 2.37044 7.95765 2.23458 7.84608C2.14221 7.77122 2.07277 7.67187 2.03422 7.5594C1.99567 7.44692 1.98955 7.32587 2.01658 7.21008L3.33324 2.66675ZM12.6666 2.66675L8.66658 3.31341L12.8252 7.77208C13.0639 8.04408 13.4846 8.07741 13.7652 7.84608C13.8576 7.77122 13.9271 7.67187 13.9656 7.5594C14.0042 7.44692 14.0103 7.32587 13.9832 7.21008L12.6666 2.66675Z" stroke="#504F4E" stroke-width="1.2" stroke-linecap="round" stroke-linejoin="round"/>
</svg>
