<svg width="24" height="24" viewBox="0 0 24 24" fill="none" xmlns="http://www.w3.org/2000/svg">
<g clip-path="url(#clip0_1001_9528)">
<mask id="mask0_1001_9528" style="mask-type:alpha" maskUnits="userSpaceOnUse" x="0" y="0" width="24" height="24">
<rect width="24" height="24" fill="white"/>
</mask>
<g mask="url(#mask0_1001_9528)">
<path d="M16.2498 5L16.1594 5.00656C15.9966 5.02925 15.8473 5.11232 15.7391 5.24037C15.631 5.36843 15.5713 5.53277 15.5713 5.70291V17.5979L12.6579 14.582L12.5819 14.5145C12.4442 14.4085 12.2728 14.3604 12.1023 14.38C11.9318 14.3996 11.7747 14.4854 11.6628 14.6201C11.5509 14.7548 11.4923 14.9285 11.499 15.1061C11.5057 15.2837 11.5771 15.4521 11.6989 15.5773L15.7739 19.7948L15.8499 19.8622C15.9806 19.9622 16.1417 20.0103 16.3037 19.9978C16.4658 19.9852 16.6181 19.9129 16.733 19.7938L20.8017 15.5764L20.8669 15.4977C20.9637 15.3622 21.0102 15.1952 20.9981 15.0271C20.986 14.859 20.916 14.7011 20.8008 14.582L20.7248 14.5145C20.594 14.4143 20.4328 14.366 20.2706 14.3786C20.1083 14.3911 19.9558 14.4637 19.8409 14.5829L16.9284 17.6017V5.70291L16.923 5.60731C16.9007 5.43903 16.8203 5.28481 16.6967 5.17317C16.5731 5.06152 16.4138 5.00001 16.2498 5ZM6.26573 5.20619L2.19881 9.41893L2.13276 9.49766C2.03621 9.63306 1.98977 9.79985 2.00189 9.96771C2.01401 10.1356 2.08389 10.2934 2.19881 10.4124L2.27481 10.4808C2.40552 10.5808 2.56654 10.6289 2.72859 10.6163C2.89064 10.6038 3.04296 10.5314 3.15786 10.4124L6.06849 7.39644V19.2971L6.07573 19.3927C6.09803 19.561 6.1784 19.7152 6.30199 19.8268C6.42557 19.9385 6.584 20 6.74797 20L6.83935 19.9934C7.00197 19.9705 7.15107 19.8874 7.25904 19.7594C7.367 19.6313 7.42651 19.4671 7.42655 19.2971L7.42564 7.39831L10.3417 10.4133L10.4177 10.4808C10.5555 10.5855 10.7264 10.6325 10.8962 10.6124C11.066 10.5922 11.2222 10.5065 11.3336 10.3723C11.445 10.238 11.5034 10.0652 11.4972 9.88828C11.4909 9.71138 11.4204 9.54343 11.2999 9.41799L7.22479 5.20619L7.14788 5.13871C7.01717 5.03869 6.85615 4.99059 6.6941 5.00315C6.53204 5.0157 6.38063 5.08714 6.26573 5.20619Z" fill="#292928"/>
</g>
</g>
<defs>
<clipPath id="clip0_1001_9528">
<rect width="24" height="24" fill="white"/>
</clipPath>
</defs>
</svg>
