<svg width="16" height="16" viewBox="0 0 16 16" fill="none" xmlns="http://www.w3.org/2000/svg">
<mask id="mask0_1481_1216" style="mask-type:alpha" maskUnits="userSpaceOnUse" x="0" y="0" width="16" height="16">
<rect width="16" height="16" fill="#D9D9D9"/>
</mask>
<g mask="url(#mask0_1481_1216)">
<path d="M2.36678 14.0001H4.00011V12.6667C4.00011 12.4779 4.064 12.3195 4.19178 12.1917C4.31955 12.064 4.47789 12.0001 4.66678 12.0001C4.85567 12.0001 5.014 12.064 5.14178 12.1917C5.26955 12.3195 5.33344 12.4779 5.33344 12.6667V14.0001H7.33344V12.6667C7.33344 12.4779 7.39733 12.3195 7.52511 12.1917C7.65289 12.064 7.81122 12.0001 8.00011 12.0001C8.189 12.0001 8.34733 12.064 8.47511 12.1917C8.60289 12.3195 8.66678 12.4779 8.66678 12.6667V14.0001H10.6668V12.6667C10.6668 12.4779 10.7307 12.3195 10.8584 12.1917C10.9862 12.064 11.1446 12.0001 11.3334 12.0001C11.5223 12.0001 11.6807 12.064 11.8084 12.1917C11.9362 12.3195 12.0001 12.4779 12.0001 12.6667V14.0001H13.6334L12.9668 11.3334H3.03344L2.36678 14.0001ZM13.6334 15.3334H2.36678C1.93344 15.3334 1.58344 15.1612 1.31678 14.8167C1.05011 14.4723 0.972332 14.089 1.08344 13.6667L2.00011 10.0001V8.66675C2.00011 8.30008 2.13067 7.98619 2.39178 7.72508C2.65289 7.46397 2.96678 7.33341 3.33344 7.33341H6.00011V2.66675C6.00011 2.11119 6.19455 1.63897 6.58344 1.25008C6.97233 0.861192 7.44455 0.666748 8.00011 0.666748C8.55567 0.666748 9.02789 0.861192 9.41678 1.25008C9.80567 1.63897 10.0001 2.11119 10.0001 2.66675V7.33341H12.6668C13.0334 7.33341 13.3473 7.46397 13.6084 7.72508C13.8696 7.98619 14.0001 8.30008 14.0001 8.66675V10.0001L14.9168 13.6667C15.0612 14.089 14.9973 14.4723 14.7251 14.8167C14.4529 15.1612 14.089 15.3334 13.6334 15.3334Z" fill="#504F4E"/>
</g>
</svg>
