<svg width="24" height="24" viewBox="0 0 24 24" fill="none" xmlns="http://www.w3.org/2000/svg" id="main">
    <g clip-path="url(#clip0_536_19014)">
        <mask id="mask0_536_19014" style="mask-type:alpha" maskUnits="userSpaceOnUse" x="0" y="0" width="24" height="24">
            <rect width="24" height="24" fill="white"/>
        </mask>
        <g mask="url(#mask0_536_19014)">
            <path d="M16.7694 14.8445L16.7887 14.8671L16.8097 14.8881C16.8898 14.9683 16.9698 15.0477 17.0491 15.1266C17.6447 15.7185 18.2103 16.2807 18.6309 16.9037C19.0818 17.5716 19.3167 18.2414 19.2153 18.9977C18.9692 19.8091 18.4074 20.5297 17.4713 20.7425C17.4024 20.7535 17.2215 20.7557 16.8671 20.7216C16.5783 20.6937 16.2363 20.6491 15.8373 20.5971C15.7611 20.5871 15.6829 20.5769 15.6026 20.5665C14.6173 20.4388 13.3727 20.2878 12.08 20.2878H11.9C10.6065 20.2878 9.36115 20.4415 8.37642 20.5704C8.3058 20.5796 8.23682 20.5887 8.16945 20.5976C7.75888 20.6516 7.40835 20.6977 7.11384 20.7257C6.75368 20.76 6.57655 20.7553 6.51473 20.7439C5.57317 20.5324 5.01117 19.8183 4.76529 19.0002C4.66803 18.2493 4.9044 17.5814 5.35705 16.9136C5.77861 16.2918 6.34397 15.7299 6.93879 15.1387C7.01886 15.0591 7.09947 14.979 7.18033 14.8981L7.19984 14.8786L7.21787 14.8577C7.78366 14.2019 8.28982 13.6054 8.80856 12.994C9.09705 12.654 9.38942 12.3094 9.69811 11.9475C10.1444 11.4352 10.6163 11.0211 11.1232 10.8473L11.1233 10.8474L11.1363 10.8426C11.2084 10.8164 11.2776 10.7978 11.3442 10.7857L11.3442 10.7857L11.3516 10.7843C11.5296 10.7501 11.7274 10.7478 12 10.7478C12.2684 10.7478 12.4747 10.7494 12.6534 10.7771C12.7176 10.7892 12.7843 10.8074 12.8537 10.8326L12.8536 10.8328L12.8668 10.8373C13.3769 11.0122 13.86 11.4305 14.2891 11.9342L14.2891 11.9342L14.2921 11.9377C14.8545 12.5895 15.3532 13.1773 15.8688 13.785C16.1589 14.1269 16.4543 14.4751 16.7694 14.8445ZM6.25 8.9978C6.25 9.9643 5.4665 10.7478 4.5 10.7478C3.5335 10.7478 2.75 9.9643 2.75 8.9978C2.75 8.0313 3.5335 7.2478 4.5 7.2478C5.4665 7.2478 6.25 8.0313 6.25 8.9978ZM10.75 4.9978C10.75 5.9643 9.9665 6.7478 9 6.7478C8.0335 6.7478 7.25 5.9643 7.25 4.9978C7.25 4.0313 8.0335 3.2478 9 3.2478C9.9665 3.2478 10.75 4.0313 10.75 4.9978ZM16.75 4.9978C16.75 5.9643 15.9665 6.7478 15 6.7478C14.0335 6.7478 13.25 5.9643 13.25 4.9978C13.25 4.0313 14.0335 3.2478 15 3.2478C15.9665 3.2478 16.75 4.0313 16.75 4.9978ZM21.25 8.9978C21.25 9.9643 20.4665 10.7478 19.5 10.7478C18.5335 10.7478 17.75 9.9643 17.75 8.9978C17.75 8.0313 18.5335 7.2478 19.5 7.2478C20.4665 7.2478 21.25 8.0313 21.25 8.9978Z" stroke="#C54509" stroke-width="1.5"/>
        </g>
    </g>
    <defs>
        <clipPath id="clip0_536_19014">
            <rect width="24" height="24" fill="white"/>
        </clipPath>
    </defs>
</svg>
