<svg width="24" height="24" viewBox="0 0 24 24" fill="none" xmlns="http://www.w3.org/2000/svg">
<mask id="mask0_536_22064" style="mask-type:alpha" maskUnits="userSpaceOnUse" x="0" y="0" width="24" height="24">
<rect width="24" height="24" fill="#D9D9D9"/>
</mask>
<g mask="url(#mask0_536_22064)">
<path fill-rule="evenodd" clip-rule="evenodd" d="M12.3388 16.5307L14.2275 14.475L9.7725 9.525L7.88377 11.5807C7.62834 11.3803 7.35758 11.2296 7.07147 11.1286C6.78536 11.0276 6.46883 10.9762 6.12186 10.9744C5.23183 10.9698 4.47961 11.3019 3.86521 11.9706C3.2508 12.6394 2.94108 13.4631 2.93605 14.4418C2.93102 15.4206 3.23225 16.2475 3.83975 16.9225C4.44726 17.5975 5.19602 17.9373 6.08605 17.9418C6.22182 17.9425 6.32752 17.9224 6.40316 17.8813C6.4788 17.8402 6.53912 17.8446 6.58412 17.8946C6.62912 17.9446 6.63255 18.011 6.59441 18.0938C6.55627 18.1765 6.53682 18.2925 6.53605 18.4418C6.53102 19.4206 6.83226 20.2475 7.43976 20.9225C8.04726 21.5975 8.79602 21.9373 9.68605 21.9418C10.5761 21.9464 11.3283 21.6144 11.9427 20.9456C12.5571 20.2769 12.8668 19.4532 12.8719 18.4744C12.8738 18.0929 12.8304 17.7443 12.7415 17.4286C12.6526 17.1129 12.5183 16.8136 12.3388 16.5307Z" fill="#FE9839"/>
<path d="M6.87332 12.417L7.56148 12.9027L8.15711 12.3071L12.3071 8.15711L12.9027 7.56148L12.417 6.87332C12.2738 6.67048 12.1712 6.46289 12.1036 6.24887C12.0387 6.04331 12 5.7966 12 5.5C12 4.77295 12.2384 4.20085 12.7196 3.71961C13.2008 3.23837 13.773 3 14.5 3C15.227 3 15.7992 3.23837 16.2804 3.71961C16.7612 4.2004 16.9996 4.77188 17 5.49796C16.945 5.63339 16.8981 5.81364 16.9113 6.02488C16.9295 6.31648 17.0566 6.57082 17.2429 6.75711C17.4292 6.94339 17.6835 7.07045 17.9751 7.08868C18.1864 7.10188 18.3666 7.05501 18.502 7C19.2281 7.00045 19.7996 7.23882 20.2804 7.71961C20.7616 8.20085 21 8.77295 21 9.5C21 10.227 20.7616 10.7992 20.2804 11.2804C19.7992 11.7616 19.227 12 18.5 12C18.2034 12 17.9567 11.9613 17.7511 11.8964C17.5371 11.8288 17.3295 11.7262 17.1267 11.583L16.4385 11.0973L15.8429 11.6929L11.6929 15.8429L11.0973 16.4385L11.583 17.1267C11.7262 17.3295 11.8288 17.5371 11.8964 17.7511C11.9613 17.9567 12 18.2034 12 18.5C12 19.227 11.7616 19.7992 11.2804 20.2804C10.7992 20.7616 10.227 21 9.5 21C8.77295 21 8.20085 20.7616 7.71961 20.2804C7.23882 19.7996 7.00045 19.2281 7 18.502C7.055 18.3666 7.10188 18.1864 7.08868 17.9751C7.07045 17.6835 6.94339 17.4292 6.75711 17.2429C6.57082 17.0566 6.31648 16.9295 6.02488 16.9113C5.81364 16.8981 5.63339 16.945 5.49796 17C4.77188 16.9996 4.2004 16.7612 3.71961 16.2804C3.23837 15.7992 3 15.227 3 14.5C3 13.773 3.23837 13.2008 3.71961 12.7196C4.20085 12.2384 4.77295 12 5.5 12C5.7966 12 6.04331 12.0387 6.24887 12.1036C6.46289 12.1712 6.67048 12.2738 6.87332 12.417Z" stroke="#FE9839" stroke-width="2"/>
</g>
</svg>
