<svg width="24" height="24" viewBox="0 0 24 24" fill="none" xmlns="http://www.w3.org/2000/svg">
<mask id="mask0_536_17843" style="mask-type:alpha" maskUnits="userSpaceOnUse" x="0" y="0" width="24" height="24">
<rect width="24" height="24" fill="#D9D9D9"/>
</mask>
<g mask="url(#mask0_536_17843)">
<path d="M1 17V7H3V15H11V7H19C20.1 7 21.0417 7.39167 21.825 8.175C22.6083 8.95833 23 9.9 23 11V17H1ZM7 14C7.83333 14 8.54167 13.7083 9.125 13.125C9.70833 12.5417 10 11.8333 10 11C10 10.1667 9.70833 9.45833 9.125 8.875C8.54167 8.29167 7.83333 8 7 8C6.16667 8 5.45833 8.29167 4.875 8.875C4.29167 9.45833 4 10.1667 4 11C4 11.8333 4.29167 12.5417 4.875 13.125C5.45833 13.7083 6.16667 14 7 14Z" fill="#8A8A86"/>
</g>
</svg>
