<svg width="16" height="16" viewBox="0 0 16 16" fill="none" xmlns="http://www.w3.org/2000/svg">
<path d="M7.33325 3.33325H8.66658M12.6666 7.99992C12.2221 11.5555 11.111 13.3333 9.33325 13.3333H6.66659C4.88881 13.3333 3.7777 11.5555 3.33325 7.99992" stroke="#504F4E" stroke-width="1.2" stroke-linecap="round" stroke-linejoin="round"/>
<path d="M7.99991 12V13.3333M6.66658 7.33329V7.33996M9.33325 7.33329V7.33996M7.33324 10.6666C7.33324 11.1111 7.55547 11.3333 7.99991 11.3333C8.66658 11.3333 8.66658 11.1113 8.66658 10.6666H7.33324ZM3.33324 2.66663L7.33324 3.31329L3.17458 7.77196C3.05785 7.90341 2.89474 7.98455 2.71949 7.99834C2.54423 8.01214 2.37044 7.95753 2.23458 7.84596C2.14221 7.7711 2.07277 7.67175 2.03422 7.55927C1.99567 7.4468 1.98955 7.32575 2.01658 7.20996L3.33324 2.66663ZM12.6666 2.66663L8.66658 3.31329L12.8252 7.77196C13.0639 8.04396 13.4846 8.07729 13.7652 7.84596C13.8576 7.7711 13.9271 7.67175 13.9656 7.55927C14.0042 7.4468 14.0103 7.32575 13.9832 7.20996L12.6666 2.66663Z" stroke="#504F4E" stroke-width="1.2" stroke-linecap="round" stroke-linejoin="round"/>
</svg>
